# xmcd CD database file
#
# Track frame offsets:
#	150
#	11645
#	34055
#	57065
#	75478
#	97855
#	112950
#	130478
#	148905
#	166308
#	180973
#	203615
#	224815
#	244933
#
# Disc length: 3449 seconds
#
# Revision: 3
# Processed by: cddbd v1.5.2PL0 Copyright (c) Steve Scherf et al.
# Submitted via: CDex 1.70beta2
#
DISCID=bb0d770e
DTITLE=MASKED RIDER TV ORIGINAL BGM COLLECTION - Kikuchi Toshinori
DYEAR=2004
DGENRE=Soundtrack
TTITLE0=Let's Go!! Rider Kick
TTITLE1=Himitsu Kessha SHOCKER
TTITLE2=Kaizou Ningen no Theme
TTITLE3=Kamen Rider Toujou
TTITLE4=Kyoufu no Daigundan
TTITLE5=Rider Fight!
TTITLE6=Ending
TTITLE7=Rider Action
TTITLE8=Shouri no Senshi
TTITLE9=V3 to Shounen Rider tai
TTITLE10=Aratanaru Kyouteki
TTITLE11=DEATHTRON wo Tatake!
TTITLE12=V3 vs DEATHTRON
TTITLE13=Tatakae! Kamen Rider V3
EXTD=YEAR: 2004
EXTT0=
EXTT1=
EXTT2=
EXTT3=
EXTT4=
EXTT5=
EXTT6=
EXTT7=
EXTT8=
EXTT9=
EXTT10=
EXTT11=
EXTT12=
EXTT13=
PLAYORDER=
